%FSLAX42Y42*%
%MOMM*%
G71*
G01*
G75*
G04 Layer_Physical_Order=2*
G04 Layer_Color=16711680*
%ADD10C,0.20*%
%ADD11O,1.35X0.35*%
%ADD12O,0.35X1.35*%
%ADD13O,2.20X0.60*%
%ADD14R,1.65X0.30*%
%ADD15R,1.20X1.80*%
%ADD16R,1.80X1.20*%
%ADD17R,4.00X3.00*%
%ADD18R,1.45X0.55*%
%ADD19R,1.45X0.55*%
%ADD20R,0.60X1.55*%
%ADD21R,3.30X2.25*%
%ADD22R,0.95X2.25*%
%ADD23R,1.60X1.80*%
%ADD24R,2.20X2.60*%
%ADD25R,2.60X2.20*%
%ADD26R,1.80X1.60*%
%ADD27R,1.30X1.50*%
%ADD28C,0.23*%
%ADD29C,0.40*%
%ADD30C,0.80*%
%ADD31C,0.70*%
%ADD32C,0.30*%
%ADD33C,0.25*%
%ADD34C,0.25*%
%ADD35C,0.10*%
%ADD36C,1.65*%
%ADD37R,1.65X1.65*%
%ADD38C,4.60*%
%ADD39C,2.00*%
%ADD40R,2.00X2.00*%
%ADD41O,1.00X2.00*%
%ADD42O,1.00X2.00*%
%ADD43C,1.50*%
%ADD44C,1.40*%
%ADD45R,1.50X1.50*%
%ADD46R,1.50X1.50*%
%ADD47C,4.00*%
%ADD48R,1.40X2.50*%
%ADD49O,1.40X2.50*%
%ADD50C,6.00*%
%ADD51C,1.00*%
D10*
X1524Y9072D02*
Y10394D01*
X16204D01*
X16405Y10193D01*
Y595D02*
Y10193D01*
X16204Y394D02*
X16405Y595D01*
X4024Y394D02*
X16204D01*
X2524D02*
X4024D01*
X2524D02*
Y3664D01*
X2824D01*
Y4364D01*
X2524D02*
X2824D01*
X2524D02*
Y5665D01*
X1224D02*
X2524D01*
X1224Y4664D02*
Y5665D01*
X624Y4664D02*
X1224D01*
X624D02*
Y6794D01*
X824Y6994D01*
X1324D01*
Y8478D01*
X522Y8477D02*
X1321D01*
X525Y8478D02*
Y9072D01*
X1524D01*
D15*
X4267Y8840D02*
D03*
X3917D02*
D03*
X4282Y9423D02*
D03*
X3932D02*
D03*
X4337Y3205D02*
D03*
X3987D02*
D03*
X4337Y3755D02*
D03*
X3987D02*
D03*
X13560Y3265D02*
D03*
X13210D02*
D03*
D26*
X9642Y5388D02*
D03*
Y5668D02*
D03*
X9910Y5388D02*
D03*
Y5668D02*
D03*
X9363Y5388D02*
D03*
Y5668D02*
D03*
D28*
X9690Y8455D02*
X9797Y8347D01*
X9799Y8346D01*
X9912Y5668D02*
Y5803D01*
Y5667D02*
Y5668D01*
X11075Y9618D02*
X12407D01*
X11010Y9682D02*
X11075Y9618D01*
X10368Y9682D02*
X11010D01*
X10497Y6720D02*
X10768D01*
X10368Y6850D02*
X10497Y6720D01*
X10235Y6850D02*
X10368D01*
X10160Y6775D02*
X10235Y6850D01*
X10038Y6775D02*
X10160D01*
X10010Y6747D02*
X10038Y6775D01*
X10010Y6720D02*
Y6747D01*
X10218Y6888D02*
X10382D01*
X10504Y6766D01*
X10140Y6810D02*
X10218Y6888D01*
X10003Y6810D02*
X10140D01*
X9893Y6700D02*
X10003Y6810D01*
X10480Y6845D02*
X10525Y6800D01*
X10480Y6845D02*
Y6978D01*
X10457Y7000D02*
X10480Y6978D01*
X10318Y7000D02*
X10457D01*
X10240Y6922D02*
X10318Y7000D01*
X10198Y6922D02*
X10240D01*
X10123Y6847D02*
X10198Y6922D01*
X9915Y6847D02*
X10123D01*
X10522Y7060D02*
X10595Y6988D01*
X10310Y7060D02*
X10522D01*
X10210Y6960D02*
X10310Y7060D01*
X10171Y6960D02*
X10210D01*
X10098Y6888D02*
X10171Y6960D01*
X9850Y6888D02*
X10098D01*
X10543Y7095D02*
X10618Y7020D01*
X10293Y7095D02*
X10543D01*
X10193Y6995D02*
X10293Y7095D01*
X10133Y6995D02*
X10193D01*
X10083Y6945D02*
X10133Y6995D01*
X9982Y6945D02*
X10083D01*
X10582Y7107D02*
X10630Y7060D01*
X10175Y7032D02*
X10282Y7140D01*
X10550D02*
X10580Y7110D01*
X10282Y7140D02*
X10550D01*
X10178Y7118D02*
X10238Y7178D01*
X10507Y7330D02*
X10718D01*
X10355Y7178D02*
X10507Y7330D01*
X10238Y7178D02*
X10355D01*
X10703Y7370D02*
X10880D01*
X10697D02*
X10703D01*
X10697D02*
X10703D01*
X10480D02*
X10697D01*
X10322Y7212D02*
X10480Y7370D01*
X10223Y7212D02*
X10322D01*
X10157Y7278D02*
X10223Y7212D01*
X8235Y5405D02*
Y5405D01*
X7906Y5734D02*
X8235Y5405D01*
X7906Y5734D02*
Y6492D01*
X7768Y6630D02*
X7906Y6492D01*
X7900Y7125D02*
X8818D01*
X7768Y6993D02*
X7900Y7125D01*
X8818D02*
X8868Y7175D01*
X10703Y4283D02*
X10725Y4260D01*
X12147D01*
X10403Y4283D02*
X10703D01*
X12147Y4260D02*
X12600Y4712D01*
X12130Y4305D02*
X12580Y4755D01*
X10400Y4420D02*
X10655D01*
X10770Y4305D01*
X12130D01*
X12600Y4712D02*
X13170D01*
X13285Y4828D01*
Y5070D01*
X13255Y5100D02*
X13285Y5070D01*
X13255Y5100D02*
Y5542D01*
X12580Y4755D02*
X13157D01*
X13250Y4847D01*
Y5050D01*
X13112Y5188D02*
X13250Y5050D01*
X13112Y5188D02*
Y5553D01*
X13205Y5645D01*
X13338D01*
X13362Y5670D01*
X12998Y5810D02*
X13048Y5860D01*
X943Y5215D02*
X1027Y5300D01*
Y5670D01*
X1235Y5878D01*
X3145D01*
X3347Y5675D01*
Y3955D02*
Y5675D01*
X5703Y3558D02*
X5915D01*
X6005Y3467D01*
X8170D01*
X8462Y3760D01*
Y4305D01*
X8355Y4412D02*
X8462Y4305D01*
X8355Y4412D02*
Y4453D01*
X10400Y4560D02*
X10588D01*
X10797Y4350D01*
X12120D01*
X12572Y4803D01*
X13148D01*
X13215Y4870D01*
Y5033D01*
X13075Y5172D02*
X13215Y5033D01*
X13075Y5172D02*
Y5590D01*
X13235Y5750D01*
X4930Y3397D02*
X5353D01*
X848Y4970D02*
Y5005D01*
Y4967D02*
Y4970D01*
Y5005D02*
X910Y5067D01*
X965D01*
X1077Y5180D01*
Y5655D01*
X1243Y5820D01*
X3138D01*
X3300Y5658D01*
Y3612D02*
Y5658D01*
X5695Y3397D02*
X8165D01*
X5692D02*
X5695D01*
X8165D02*
X8505Y3738D01*
Y4488D01*
X8720Y4703D01*
X10405D02*
X10522D01*
X10832Y4392D01*
X12103D01*
X12557Y4847D01*
X13140D01*
X13180Y4888D01*
Y5008D01*
X13038Y5150D02*
X13180Y5008D01*
X13038Y5150D02*
Y5678D01*
X13207Y5847D01*
Y5908D01*
X10878Y4445D02*
X11997D01*
X12175Y4775D02*
X12265Y4865D01*
X11885Y4485D02*
X12175Y4775D01*
X12265Y4865D01*
X12768Y4415D02*
X12895D01*
X12525Y4172D02*
X12768Y4415D01*
X13093Y4467D02*
X13098Y4462D01*
X13148Y4412D01*
X14088D01*
X14112Y4375D02*
X14225Y4488D01*
X12782Y4375D02*
X14112D01*
X12540Y4133D02*
X12782Y4375D01*
X13370Y5320D02*
X13780D01*
X13773Y5465D02*
X14027Y5210D01*
X13373Y5465D02*
X13773D01*
X14325Y5520D02*
Y5697D01*
X11625Y3397D02*
X12232Y2790D01*
X11625Y3397D02*
Y3567D01*
X12998Y5038D02*
X13093Y4942D01*
X15062Y2240D02*
Y2965D01*
X14088Y4412D02*
X14215Y4540D01*
X14995Y4817D02*
X15145Y4967D01*
X14957Y4817D02*
X14995D01*
X12998Y5038D02*
Y5810D01*
X12538Y5867D02*
X12660D01*
X13110Y5942D02*
X13162Y5995D01*
X12660Y5867D02*
X12735Y5942D01*
X13110D01*
X13727Y5867D02*
X13939Y5656D01*
X13727Y5860D02*
Y5867D01*
X13600Y5995D02*
X13727Y5867D01*
X13162Y5995D02*
X13600D01*
X14197Y5656D02*
X14282Y5570D01*
X13939Y5656D02*
X14197D01*
X13493Y6495D02*
X13635D01*
X13827Y6688D01*
X13918D01*
X13980Y6750D01*
X13412Y6220D02*
X13585Y6392D01*
X12780Y6220D02*
X13412D01*
X13975Y7018D02*
Y7260D01*
Y7015D02*
Y7018D01*
X13902Y7332D02*
X13975Y7260D01*
X13752Y6475D02*
X13857Y6580D01*
X14225Y6730D02*
X14385Y6570D01*
X14118Y6372D02*
Y6680D01*
X14090Y6920D02*
Y6922D01*
Y6905D02*
Y6920D01*
X12628Y5533D02*
Y5560D01*
X13823Y7053D02*
Y7215D01*
X13818Y7220D02*
X13823Y7215D01*
X14325Y5520D02*
X14382Y5462D01*
X14300Y3975D02*
X14523Y3753D01*
Y2335D02*
Y3753D01*
Y2335D02*
X15146Y1711D01*
X15342D01*
X15591Y7557D02*
X15643D01*
X15342Y7807D02*
X15591Y7557D01*
X15493Y7760D02*
Y7857D01*
Y7760D02*
X15555Y7697D01*
X15740Y7319D02*
X15760Y7299D01*
X15850D01*
X15740Y7319D02*
Y7675D01*
X15718Y7697D02*
X15740Y7675D01*
X15555Y7697D02*
X15718D01*
X15668Y6340D02*
Y6400D01*
X15661Y6537D02*
X15850D01*
X15536Y6412D02*
X15661Y6537D01*
X15298Y6412D02*
X15536D01*
X15480Y6153D02*
X15668Y6340D01*
X15252Y6153D02*
X15480D01*
X15157Y6247D02*
X15252Y6153D01*
X15107Y5978D02*
X15180Y5905D01*
X15595D01*
X15107Y5978D02*
Y6045D01*
X13145Y6033D02*
X13812D01*
X13915Y5817D02*
X14662D01*
X14775Y5705D01*
X15150D01*
X13788Y5945D02*
X13915Y5817D01*
X12195Y5980D02*
X13093D01*
X13145Y6033D01*
X13135Y6078D02*
X13818D01*
X13716Y6111D02*
X13831D01*
X13716Y6111D02*
X13716Y6111D01*
X13082Y6025D02*
X13135Y6078D01*
X13102Y6111D02*
X13716D01*
X13070Y6145D02*
X13845D01*
X13052Y6179D02*
X13053Y6180D01*
X12155Y6020D02*
X12195Y5980D01*
X12218Y5915D02*
X12305Y5828D01*
X12128Y5915D02*
X12218D01*
X12305Y4847D02*
X12357Y4795D01*
X12305Y4847D02*
Y5828D01*
X15543Y3182D02*
X15850Y3489D01*
X15543Y1330D02*
Y3182D01*
X15410Y1198D02*
X15543Y1330D01*
X14500Y1198D02*
X15410D01*
X14410Y1288D02*
X14500Y1198D01*
X12232Y2790D02*
X12680D01*
X10312Y5172D02*
Y6410D01*
X10662Y4822D02*
X10968D01*
X10312Y5172D02*
X10662Y4822D01*
X10503Y5188D02*
X10630Y5315D01*
X10172Y6550D02*
X10312Y6410D01*
X10014Y6567D02*
X10043Y6595D01*
X9588Y6567D02*
X10014D01*
X10172Y6330D02*
X10275Y6228D01*
X10348Y5222D02*
X10410Y5160D01*
X10275Y5125D02*
Y6228D01*
X10172Y6330D02*
Y6397D01*
X10010Y6425D02*
X10228Y6208D01*
X10010Y6425D02*
Y6493D01*
X9988Y6515D02*
X10010Y6493D01*
X9743Y6515D02*
X9988D01*
X9697Y6470D02*
X9743Y6515D01*
X9455Y6700D02*
X9588Y6567D01*
X9635Y6350D02*
X9820D01*
X10057Y6112D01*
X9725Y6253D02*
X10010Y5967D01*
Y5920D02*
Y5967D01*
X15590Y2975D02*
X15850Y3235D01*
X15590Y1293D02*
Y2975D01*
X15448Y1150D02*
X15590Y1293D01*
X14385Y1150D02*
X15448D01*
X14290Y1245D02*
X14385Y1150D01*
X10662Y4738D02*
X11060D01*
X10275Y5125D02*
X10662Y4738D01*
X11218Y4485D02*
X11885D01*
X11188Y4515D02*
X11218Y4485D01*
X11188Y4515D02*
Y4630D01*
X11253Y4695D01*
Y5022D01*
X11207Y5067D02*
X11253Y5022D01*
X9070Y6880D02*
X9290D01*
X8853Y6662D02*
X9070Y6880D01*
X9370Y6493D02*
X10062Y5800D01*
X12265Y4865D02*
Y5488D01*
X11947Y5805D02*
X12265Y5488D01*
X15741Y2981D02*
X15850D01*
X15645Y2885D02*
X15741Y2981D01*
X15645Y1238D02*
Y2885D01*
X15495Y1088D02*
X15645Y1238D01*
X14310Y1088D02*
X15495D01*
X14198Y1200D02*
X14310Y1088D01*
X14198Y1200D02*
Y2525D01*
X15690Y1217D02*
Y2695D01*
X15722Y2727D01*
X15505Y1032D02*
X15690Y1217D01*
X14250Y1032D02*
X15505D01*
X14090Y1193D02*
X14250Y1032D01*
X10228Y5095D02*
Y6208D01*
Y5095D02*
X10878Y4445D01*
X10293Y4234D02*
Y4905D01*
X10193Y5006D02*
X10293Y4905D01*
Y4234D02*
X10355Y4172D01*
X10193Y5006D02*
Y5860D01*
X15722Y2727D02*
X15850D01*
X14090Y1193D02*
Y3715D01*
Y4117D01*
X14120Y4147D01*
X14302D01*
X15045Y4232D02*
X15045D01*
X15162Y4115D01*
X14877Y4400D02*
X15045Y4232D01*
X14296Y4400D02*
X14877D01*
X14198Y4303D02*
X14296Y4400D01*
X12832Y4303D02*
X14198D01*
X12807Y4338D02*
X14148D01*
X14255Y4445D01*
X14885D02*
X15071Y4259D01*
X14255Y4445D02*
X14885D01*
X10355Y4172D02*
X12525D01*
X10103Y5950D02*
X10193Y5860D01*
X10103Y5950D02*
Y6258D01*
X9925Y6435D02*
X10103Y6258D01*
X8745Y5762D02*
X8938Y5956D01*
X8745Y5762D02*
X8938Y5956D01*
X5491Y7246D02*
X6410Y6328D01*
X5778Y6327D02*
X5908Y6197D01*
X5778Y6327D02*
Y6740D01*
X15032Y7938D02*
X15412D01*
X15493Y7857D01*
X9045Y7330D02*
X9432Y7718D01*
X9432Y6967D02*
X9655Y7190D01*
Y7620D01*
X11343Y5645D02*
X11478Y5780D01*
X11343Y4692D02*
Y5645D01*
Y4692D02*
X11465Y4570D01*
X9612Y3633D02*
X11118D01*
X8412Y2432D02*
X9612Y3633D01*
X6185Y2432D02*
X8412D01*
X8357Y2280D02*
X9610Y3533D01*
X11288D01*
X11465Y3710D01*
X6022Y2280D02*
X8357D01*
X5978Y2325D02*
X6022Y2280D01*
X5978Y2325D02*
Y2640D01*
X6024Y2686D02*
X6185D01*
X5978Y2640D02*
X6024Y2686D01*
X5616Y1584D02*
X6183D01*
X5472Y1727D02*
X5616Y1584D01*
X5472Y5315D02*
X5545Y5388D01*
X8700Y8590D02*
Y9388D01*
Y8590D02*
X8835Y8455D01*
X9690D01*
X8179Y9054D02*
X8295Y8938D01*
X8507D01*
X8610Y8835D01*
Y8547D02*
Y8835D01*
Y8547D02*
X8805Y8353D01*
X8605Y9482D02*
X8700Y9388D01*
X8238Y9482D02*
X8605D01*
X8179Y9424D02*
X8238Y9482D01*
X8179Y9307D02*
Y9424D01*
X7925Y9054D02*
X7958D01*
X8082Y9178D01*
X8543D01*
X8655Y9065D01*
Y8565D02*
Y9065D01*
Y8565D02*
X8815Y8405D01*
X9588D01*
X15662Y8889D02*
X15850Y9077D01*
X10596Y7624D02*
X10653Y7680D01*
X11788D01*
X11888Y7580D01*
X15410Y8443D02*
X15618Y8650D01*
Y9228D01*
X15721Y9331D01*
X15850D01*
X15020Y8522D02*
X15188Y8690D01*
X15432D01*
X15502Y8760D01*
Y9300D01*
X15471Y9331D02*
X15502Y9300D01*
X15342Y9331D02*
X15471D01*
X15160Y8793D02*
Y8895D01*
X15342Y9077D01*
X15390Y8190D02*
X15475Y8275D01*
Y8440D01*
X15662Y8628D01*
Y8889D01*
X15600Y8375D02*
Y8485D01*
X15684Y8569D01*
X15850D01*
Y8823D02*
X16020Y8653D01*
X13907Y6840D02*
X14127D01*
X13105Y9697D02*
X13238Y9565D01*
X15898D01*
X15990Y9472D01*
Y9000D02*
Y9472D01*
X15943Y8953D02*
X15990Y9000D01*
X15793Y8953D02*
X15943D01*
X15710Y8870D02*
X15793Y8953D01*
X15710Y8740D02*
Y8870D01*
Y8740D02*
X15757Y8693D01*
X15915D01*
X15975Y8632D01*
Y8440D02*
Y8632D01*
X15850Y8315D02*
X15975Y8440D01*
X13298Y9688D02*
X13377Y9607D01*
X15912D01*
X16120Y9400D01*
Y8303D02*
Y9400D01*
X10565Y7945D02*
X10710Y7800D01*
X11790D01*
X11915Y7675D01*
X12823Y7330D02*
X12966Y7472D01*
X14568D01*
X15032Y7938D01*
X15948Y6668D02*
X16165Y6885D01*
Y7768D01*
X16020Y7915D02*
Y8653D01*
Y7912D02*
X16165Y7768D01*
X15850Y7553D02*
X15990D01*
X16055Y7488D01*
Y7288D02*
Y7488D01*
X15940Y7172D02*
X16055Y7288D01*
X15198Y7172D02*
X15940D01*
X10525Y7782D02*
X10635D01*
X10670Y7747D01*
X11770D01*
X11890Y7628D01*
X11951Y7543D02*
X12046Y7447D01*
X12455D01*
X11888Y7580D02*
X11978D01*
X12068Y7490D01*
X12422D01*
X13168Y7295D02*
X13250Y7378D01*
X12757Y7228D02*
X12868Y7118D01*
Y7030D02*
Y7118D01*
X13575Y6825D02*
X13638Y6888D01*
X13362Y6682D02*
X13457Y6588D01*
X13427Y6688D02*
X13480D01*
X13390Y6725D02*
X13427Y6688D01*
X15610Y7807D02*
X15850D01*
X14127Y6840D02*
X14173Y6885D01*
X15227Y7375D02*
X15342Y7489D01*
Y7553D01*
X14252Y6925D02*
X14388D01*
X14745Y7282D01*
X15005D01*
X15115Y7393D01*
Y7518D01*
X7862Y6728D02*
X7866Y6731D01*
X4982Y5515D02*
X7470D01*
X7112Y5647D02*
X7495D01*
X7582Y5560D01*
Y4010D02*
Y5560D01*
X7338Y5755D02*
X7482D01*
X7688Y5550D01*
Y4160D02*
Y5550D01*
X15132Y5220D02*
Y5245D01*
X15277Y5390D01*
X16032D02*
X16205Y5562D01*
Y6450D01*
X16118Y6537D02*
X16205Y6450D01*
X15850Y6537D02*
X16118D01*
X15277Y5390D02*
X16032D01*
X14882Y6435D02*
X15032Y6585D01*
X15198D01*
X15218Y6565D01*
Y6493D02*
Y6565D01*
Y6493D02*
X15298Y6412D01*
X14918Y6420D02*
X14988Y6490D01*
X10768Y6720D02*
X10805Y6682D01*
X9905Y6615D02*
X10010Y6720D01*
X15595Y5905D02*
X15685Y5995D01*
Y6258D02*
X15720Y6292D01*
X15840D01*
X15850Y6283D01*
X15685Y5995D02*
Y6258D01*
X11295Y5770D02*
X11322Y5797D01*
X11295Y4592D02*
Y5770D01*
X11478Y5780D02*
X11505D01*
X10665Y7155D02*
X10705D01*
X10722Y7138D01*
X10822D01*
X10865Y7095D01*
X10995D01*
X10780Y6825D02*
Y6875D01*
X10755Y6800D02*
X10780Y6825D01*
X10525Y6800D02*
X10755D01*
X10743Y6855D02*
Y6897D01*
X10725Y6838D02*
X10743Y6855D01*
X10615Y6838D02*
X10725D01*
X10570Y6882D02*
X10615Y6838D01*
X10043Y7032D02*
X10175D01*
X12677Y7193D02*
X12778Y7093D01*
Y6993D02*
Y7093D01*
Y6993D02*
X12827Y6943D01*
X12910D01*
X12957Y6990D01*
Y7090D01*
X13015Y7147D02*
X13173D01*
X13638Y6765D02*
X13673Y6730D01*
X13525Y6865D02*
X13557Y6897D01*
Y6929D01*
X13596Y6967D01*
X13703D01*
X13457Y6588D02*
X13613D01*
X13676Y6650D01*
X13718D01*
X13752Y6683D01*
Y6684D01*
X13907Y6840D01*
X15200Y5655D02*
X15476D01*
X15850Y6029D01*
X15150Y5705D02*
X15200Y5655D01*
X9910Y6968D02*
X9960D01*
X9982Y6945D01*
X12150Y7080D02*
X12268Y6962D01*
X9540Y6755D02*
Y6868D01*
Y6755D02*
X9680Y6615D01*
X9905D01*
X9743Y6780D02*
X9847D01*
X9915Y6847D01*
X10942Y6908D02*
X11065Y6785D01*
X10813Y6908D02*
X10942D01*
X10780Y6875D02*
X10813Y6908D01*
X10743Y6897D02*
X10796Y6951D01*
X9807Y6930D02*
Y7062D01*
Y6930D02*
X9850Y6888D01*
X12538Y6865D02*
X13525D01*
X14988Y8620D02*
X15160Y8793D01*
X12545Y6725D02*
X13390D01*
X12550Y6682D02*
X13362D01*
X12495Y5610D02*
X12657Y5772D01*
X12495Y5458D02*
Y5610D01*
X10062Y4145D02*
Y5800D01*
X10010Y5920D02*
X10115Y5815D01*
Y4167D02*
Y5815D01*
X11118Y3633D02*
X11247Y3762D01*
X10157Y4050D02*
X12580D01*
X12832Y4303D01*
X10062Y4145D02*
X10157Y4050D01*
X10115Y4167D02*
X10188Y4095D01*
X12565D01*
X12807Y4338D01*
X10057Y5938D02*
Y6112D01*
Y5938D02*
X10155Y5840D01*
Y4203D02*
Y5840D01*
Y4203D02*
X10225Y4133D01*
X12540D01*
X15850Y3743D02*
X15870D01*
X15638Y4128D02*
X16085D01*
X16160Y4053D01*
X16058Y2473D02*
X16160Y2575D01*
X15850Y2473D02*
X16058D01*
X15395Y4370D02*
X15638Y4128D01*
X15548Y4115D02*
X15668Y3995D01*
Y3813D02*
Y3995D01*
X15738Y3743D02*
X15850D01*
X15668Y3813D02*
X15738Y3743D01*
X15162Y4115D02*
X15548D01*
X15125Y6953D02*
X15162Y6915D01*
X15720D01*
X15850Y7045D01*
X15512Y8165D02*
X15618Y8060D01*
Y7995D02*
Y8060D01*
Y7995D02*
X15675Y7938D01*
X15927D01*
X16115Y7750D01*
Y7056D02*
Y7750D01*
X15850Y6791D02*
X16115Y7056D01*
X9272Y6420D02*
Y6675D01*
Y6420D02*
X9397Y6295D01*
X9890Y5825D02*
X9912Y5803D01*
X9370Y6493D02*
Y6967D01*
X8172D02*
X9370D01*
X9432D01*
X6410Y6328D02*
X7622D01*
X5908Y6197D02*
X7512D01*
X7768Y6630D02*
Y6993D01*
X8235Y5405D02*
X8305Y5335D01*
X8720D01*
X9058Y5867D02*
Y6011D01*
X8999Y6070D02*
X9058Y6011D01*
X8853Y6070D02*
X8999D01*
X8714Y6208D02*
X8853Y6070D01*
X10970Y7885D02*
X11382D01*
X11662Y8165D02*
Y8990D01*
X9253Y9085D02*
X11568D01*
X7932Y9747D02*
X8590D01*
X7722Y9538D02*
X7932Y9747D01*
X7722Y8732D02*
Y9538D01*
Y8732D02*
X8253Y8203D01*
X8755D01*
X8590Y9747D02*
X9253Y9085D01*
X7862Y6728D02*
X8012Y6578D01*
X8572D01*
X8714Y6435D01*
Y6208D02*
Y6435D01*
X7970Y6947D02*
X8182Y6735D01*
X7862Y6947D02*
X7970D01*
X7800Y7203D02*
Y7722D01*
X7903Y7825D01*
X8082D01*
X8120Y7862D01*
Y7990D01*
X8055Y8055D02*
X8120Y7990D01*
X7738Y8055D02*
X8055D01*
X7610Y8182D02*
X7738Y8055D01*
X7610Y8182D02*
Y9518D01*
X7910Y9818D01*
X10018D01*
X10243Y9593D01*
X10872Y5833D02*
X11135D01*
X11240Y5938D01*
X11510D01*
X11568Y9085D02*
X11662Y8990D01*
X11382Y7885D02*
X11662Y8165D01*
X9718Y7725D02*
X9747Y7695D01*
Y7370D02*
Y7695D01*
X10497Y8032D02*
X11482D01*
X11625Y8175D02*
Y8897D01*
X11482Y8032D02*
X11625Y8175D01*
X10062Y7597D02*
X10497Y8032D01*
X9711Y7802D02*
Y8197D01*
X9555Y8353D02*
X9711Y8197D01*
Y7802D02*
X9785Y7728D01*
X9749Y7816D02*
Y8243D01*
X9588Y8405D02*
X9749Y8243D01*
Y7816D02*
X9820Y7745D01*
X9990Y7707D02*
X10355Y8072D01*
X11470D01*
X11590Y8193D01*
Y8790D01*
X11532Y8990D02*
X11625Y8897D01*
X11390Y8990D02*
X11590Y8790D01*
X13150Y9290D02*
X13355Y9085D01*
Y8250D02*
Y9085D01*
X13438Y8168D02*
X13720D01*
X11780Y9290D02*
X11795D01*
X13355Y8250D02*
X13438Y8168D01*
X11795Y9290D02*
X13150D01*
X13273Y8072D02*
X13420Y7925D01*
X13273Y8072D02*
Y9025D01*
X13102Y9195D02*
X13273Y9025D01*
X11875Y9195D02*
X13102D01*
X9785Y7435D02*
Y7728D01*
X9820Y7468D02*
Y7745D01*
X9900Y7635D02*
X10072Y7462D01*
X9900Y7635D02*
Y7822D01*
X10190Y8112D01*
X11455D01*
X11553Y8210D01*
Y8710D01*
X11395Y8868D02*
X11553Y8710D01*
X11278Y8868D02*
X11395D01*
X11757Y9078D02*
X11875Y9195D01*
X11655Y9162D02*
X11788D01*
X11860Y9235D01*
X13148D01*
X13318Y9065D01*
Y8175D02*
Y9065D01*
Y8175D02*
X13400Y8092D01*
X9862Y7547D02*
X9930Y7480D01*
X9862Y7547D02*
Y7860D01*
X10162Y8160D01*
X11445D01*
X11515Y8230D01*
Y8615D01*
X11428Y8703D02*
X11515Y8615D01*
X12266Y8895D02*
X13118D01*
X13220Y7975D02*
X13355Y7840D01*
X13518D01*
X13573Y7895D01*
X13795D01*
X8423Y7330D02*
X9045D01*
X10000Y7118D02*
X10178D01*
X9432Y7718D02*
Y7725D01*
X9718D01*
X9747Y7370D02*
X10000Y7118D01*
X10022Y7197D02*
X10120D01*
X9785Y7435D02*
X10022Y7197D01*
X10010Y7278D02*
X10157D01*
X10880Y7370D02*
X10920Y7410D01*
X9820Y7468D02*
X10010Y7278D01*
X9270Y7407D02*
Y7497D01*
X9375Y7603D01*
X9510D01*
X9407Y7375D02*
Y7405D01*
Y7375D02*
X9415Y7368D01*
X9575D01*
X10920Y7410D02*
X11038D01*
X10200Y7435D02*
X10262Y7497D01*
X11945D02*
X12032Y7410D01*
X12475D01*
X12725Y7793D02*
X13560D01*
X13773Y7580D01*
X14375D01*
X12422Y7490D02*
X12725Y7793D01*
X12757Y7750D02*
X13540D01*
X13762Y7528D01*
X14515D01*
X12455Y7447D02*
X12757Y7750D01*
X12707Y7643D02*
X13405D01*
X12475Y7410D02*
X12707Y7643D01*
X10288Y7305D02*
X10435Y7453D01*
X10880Y7497D02*
X10928Y7545D01*
X10262Y7497D02*
X10880D01*
X10912Y7453D02*
X10965Y7505D01*
X10435Y7453D02*
X10912D01*
X12553Y7370D02*
X12740Y7557D01*
X13288D01*
X14102Y8257D02*
X14818D01*
X15129Y8569D01*
X15342D01*
X15238Y8443D02*
X15410D01*
X14515Y7528D02*
X14962Y7975D01*
X14018Y8332D02*
X14095Y8410D01*
X14018Y8145D02*
Y8332D01*
Y8145D02*
X14073Y8090D01*
X14525D01*
X15015Y8172D02*
X15195D01*
X15212Y8190D01*
X15390D01*
X14889Y8094D02*
X14889D01*
X14375Y7580D02*
X14889Y8094D01*
X14889D02*
X15238Y8443D01*
X14962Y7975D02*
Y8120D01*
X15015Y8172D01*
X15084Y8061D02*
X15342D01*
X15055Y8090D02*
X15084Y8061D01*
X13356Y6965D02*
X13360D01*
X13173Y7147D02*
X13356Y6965D01*
X14225Y6730D02*
Y6750D01*
X15227Y7265D02*
Y7375D01*
X13703Y6967D02*
X13735Y6935D01*
X13735D01*
X13755Y6915D01*
X14080D01*
X13365Y7100D02*
X13568D01*
X14173Y6885D02*
Y6961D01*
X14225Y7014D01*
X14407D01*
X14602Y7210D01*
X14275Y7895D02*
X14382Y8003D01*
X14565D01*
X14612Y8050D01*
Y8180D01*
X14648Y8215D01*
X14843D01*
X15112Y8485D01*
X15168D01*
X15177D01*
X15445Y9475D02*
X15668D01*
X16050Y2805D02*
X16157D01*
X2973Y8965D02*
Y9445D01*
X2852Y8845D02*
X2973Y8965D01*
X1362Y8845D02*
X2852D01*
X1280Y8928D02*
X1362Y8845D01*
X905Y8928D02*
X1280D01*
X6870Y7630D02*
Y7918D01*
X10203Y9847D02*
X10368Y9682D01*
X6688Y5847D02*
Y6025D01*
X6755Y6092D01*
X12073Y8703D02*
X12266Y8895D01*
X11765Y8703D02*
X12073D01*
X13118Y8895D02*
X13220Y8793D01*
Y7975D02*
Y8793D01*
X12740Y8428D02*
Y8632D01*
X12820Y8712D01*
X13020D01*
X8185Y4705D02*
Y5208D01*
X7718Y5675D02*
X8185Y5208D01*
X7718Y5675D02*
Y6397D01*
X7370Y6745D02*
X7718Y6397D01*
X6795Y6745D02*
X7370D01*
X6568Y6972D02*
X6795Y6745D01*
X6568Y6972D02*
Y7903D01*
X6568Y8210D02*
Y8368D01*
X5755Y9180D02*
X6568Y8368D01*
X4783Y9180D02*
X5755D01*
X700Y8625D02*
X2835D01*
X1087Y8760D02*
X2872D01*
X4725Y9290D02*
X5803D01*
X6720Y8372D01*
X6715Y6903D02*
Y7903D01*
Y6903D02*
X6818Y6800D01*
X7397D01*
X7772Y6425D01*
Y5692D02*
Y6425D01*
Y5692D02*
X8243Y5222D01*
Y4800D02*
Y5222D01*
Y4800D02*
X8320Y4722D01*
X9330Y8368D02*
X9438D01*
X9453Y8353D01*
X9555D01*
X9315D02*
X9330Y8368D01*
X8805Y8353D02*
X9315D01*
X14290Y3151D02*
Y3442D01*
X14188Y3049D02*
X14290Y3151D01*
X14188Y2805D02*
Y3049D01*
Y2805D02*
X14290Y2702D01*
Y1245D02*
Y2702D01*
X14312Y2830D02*
X14410Y2733D01*
Y1288D02*
Y2733D01*
X14885Y3240D02*
X14893Y3247D01*
X9095Y7828D02*
X9630D01*
X8997Y7925D02*
X9095Y7828D01*
X8997Y7925D02*
Y8068D01*
X9188Y7928D02*
X9545D01*
X9132Y7982D02*
X9188Y7928D01*
X9132Y7982D02*
Y8120D01*
Y8122D01*
X8755Y8203D02*
X8811Y8146D01*
X10803Y6635D02*
X10988D01*
X11007Y6615D01*
Y6528D02*
Y6615D01*
X12226Y6179D02*
X13052D01*
X12205Y6085D02*
X13076D01*
X13102Y6111D01*
X10382Y6205D02*
Y6647D01*
X10778Y6660D02*
X10803Y6635D01*
X10756Y6682D02*
X10782Y6655D01*
X10382Y6647D02*
X10417Y6682D01*
X10756D01*
X10460Y6597D02*
X10605D01*
X10712Y6490D01*
X10782D01*
X12210Y6025D02*
X13082D01*
X10893Y6518D02*
X10917Y6493D01*
X10992D01*
X10743Y6578D02*
X10862Y6458D01*
X10980D01*
X10782Y6490D02*
X10848Y6424D01*
X10963D01*
X10650Y6315D02*
X10732Y6233D01*
X10630Y6217D02*
Y6220D01*
Y5315D02*
Y6217D01*
X10268Y6532D02*
X10348Y6452D01*
X10268Y6532D02*
Y6603D01*
X10195Y6675D02*
X10268Y6603D01*
X10348Y5222D02*
Y6452D01*
X10118Y6675D02*
X10195D01*
X10382Y6205D02*
X10422Y6165D01*
X10500D01*
X10547Y6212D01*
Y6267D01*
X10595Y6315D01*
X10650D01*
X10665Y5200D02*
Y6067D01*
X10465Y6245D02*
X10575Y6355D01*
X10900D01*
X10988Y6145D02*
Y6267D01*
X10665Y6067D02*
X10732Y6135D01*
X10782Y5860D02*
X10841Y5919D01*
X11121D01*
X11222Y6020D01*
X12155D01*
X10730Y5885D02*
X10988Y6142D01*
X10730Y5267D02*
Y5885D01*
X11060Y4738D02*
X11143Y4820D01*
X10968Y4822D02*
X11128Y4983D01*
X10712Y4858D02*
X10905D01*
X11028Y4980D01*
Y5020D01*
X11075Y5067D01*
X11207D01*
X10412Y5158D02*
X10712Y4858D01*
X10722Y4967D02*
X10897D01*
X11000Y5070D01*
Y5312D01*
X10782Y5530D02*
Y5860D01*
Y5530D02*
X11000Y5312D01*
X10503Y5188D02*
X10722Y4967D01*
X10730Y5267D02*
X10803Y5195D01*
X11915Y7675D02*
X12003D01*
X12043Y7715D01*
X13720Y8168D02*
X13790Y8238D01*
X5545Y5388D02*
X6512D01*
X5472Y1727D02*
Y5315D01*
X10812Y7582D02*
X11268D01*
X11331Y7645D01*
X11762D01*
X11865Y7543D01*
X11951D01*
X10928Y7545D02*
X11301D01*
X11363Y7607D01*
X11743D01*
X11853Y7497D01*
X11945D01*
X11407Y7572D02*
X11725D01*
X11835Y7462D01*
X11915D01*
X11980Y7397D02*
X11982Y7395D01*
X11915Y7462D02*
X11980Y7397D01*
X11340Y7505D02*
X11407Y7572D01*
X12007Y7370D02*
X12553D01*
X10965Y7505D02*
X11340D01*
X10505Y6765D02*
X10785D01*
X10786D01*
X10785D02*
X10832Y6718D01*
X10907Y6825D02*
X10981Y6752D01*
X10949Y6951D02*
X11078Y6822D01*
X10796Y6951D02*
X10949D01*
X10595Y6985D02*
X10963D01*
X11085Y6862D01*
X11920Y7038D02*
X12132D01*
X11878Y6995D02*
X11920Y7038D01*
X10618Y7020D02*
X10975D01*
X11090Y6905D01*
X11915Y7080D02*
X12150D01*
X11740Y6905D02*
X11915Y7080D01*
X10630Y7060D02*
X10982D01*
X11100Y6943D01*
X11978Y7193D02*
X12677D01*
X10995Y7095D02*
X11110Y6980D01*
X11582Y6845D02*
X11965Y7228D01*
X12757D01*
X11007Y7132D02*
X11120Y7020D01*
X10878Y7132D02*
X11007D01*
X10962Y7232D02*
X11141Y7054D01*
X11932Y7295D02*
X13168D01*
X10947Y7232D02*
X10962D01*
X10717Y7330D02*
X10965D01*
X11197Y7097D01*
X11540Y6955D02*
X11915Y7330D01*
X12092D02*
X12093Y7330D01*
X12092Y7330D02*
X12823D01*
X11980Y7397D02*
X12007Y7370D01*
X11890Y7628D02*
X12000D01*
X12097Y7530D01*
X12347D01*
X12385Y7568D01*
X12043Y7715D02*
X12285D01*
X11915Y7330D02*
X12092D01*
X11595Y6810D02*
X11978Y7193D01*
X11630Y6700D02*
X11860Y6930D01*
X12132Y7038D02*
X12190Y6980D01*
X10805Y6682D02*
X11130D01*
X10832Y6718D02*
X11145D01*
X10981Y6752D02*
X11158D01*
X11065Y6785D02*
X11172D01*
X11078Y6822D02*
X11182D01*
X11305Y6700D01*
X11630D01*
X11085Y6862D02*
X11190D01*
X11315Y6738D01*
X11620D01*
X11090Y6905D02*
X11195D01*
X11325Y6775D01*
X11610D01*
X11738Y6903D01*
X11100Y6943D02*
X11205D01*
X11337Y6810D01*
X11595D01*
X11110Y6980D02*
X11215D01*
X11350Y6845D01*
X11582D01*
X11120Y7020D02*
X11222D01*
X11357Y6885D02*
X11570D01*
X11222Y7020D02*
X11357Y6885D01*
X11570D02*
X11946Y7261D01*
X11141Y7054D02*
X11235D01*
X11369Y6920D01*
X11557D01*
X11692Y7054D01*
X11693Y7055D01*
X11692Y7054D02*
X11693Y7055D01*
X11932Y7295D01*
X11197Y7097D02*
X11240D01*
X11382Y6955D01*
X11540D01*
X11460Y7057D02*
Y7265D01*
X12535Y6445D02*
X12555D01*
X13037Y4557D02*
X13138D01*
X13240Y4455D01*
X14077D01*
X14240Y4617D01*
X12895Y4415D02*
X13037Y4557D01*
X12957Y7090D02*
X13015Y7147D01*
X11946Y7261D02*
X13289D01*
X12677Y6323D02*
X12780Y6220D01*
X12555Y6323D02*
X12677D01*
X12530Y6347D02*
X12555Y6323D01*
X12530Y6347D02*
Y6422D01*
Y6425D01*
X10788Y7222D02*
X10878Y7132D01*
X10785Y7225D02*
X10788Y7222D01*
X13327D02*
X13330Y7220D01*
X13289Y7261D02*
X13327Y7222D01*
X15071Y4259D02*
X15110Y4220D01*
X15180D01*
X11997Y4445D02*
X12188Y4635D01*
X10036Y6594D02*
X10064Y6621D01*
X10118Y6675D01*
X10172Y6397D02*
X10178Y6403D01*
X10193Y6418D01*
X15215Y4312D02*
X15273Y4370D01*
X15073Y4312D02*
X15215D01*
X14898Y4488D02*
X15073Y4312D01*
X14225Y4488D02*
X14898D01*
X15273Y4370D02*
X15395D01*
X14215Y4540D02*
X14919D01*
X15061Y4397D01*
X15155D01*
X13093Y4462D02*
X13098D01*
X13404Y6406D02*
X13493Y6495D01*
X15340Y1963D02*
X15340Y1962D01*
X15062Y2240D02*
X15340Y1963D01*
X16160Y3784D02*
Y4053D01*
Y3784D02*
X16220Y3724D01*
Y3488D02*
Y3724D01*
X16160Y2575D02*
Y3428D01*
X16220Y3488D01*
X14240Y4617D02*
Y4645D01*
X14382Y5361D02*
Y5462D01*
X14245Y5224D02*
X14382Y5361D01*
X14245Y4780D02*
Y5224D01*
X14988Y6490D02*
X15110D01*
X14285Y6432D02*
X14325Y6472D01*
X14285Y6378D02*
Y6432D01*
Y6378D02*
Y6385D01*
X14325Y6472D02*
X14435D01*
X14374Y6399D02*
X14424D01*
X14285Y6355D02*
Y6378D01*
X14118Y6372D02*
X14232Y6258D01*
X13858Y6179D02*
X14043Y5995D01*
X13055Y6179D02*
X13858D01*
X14418Y6272D02*
Y6275D01*
X14285Y6355D02*
X14335Y6305D01*
X14882Y6188D02*
Y6435D01*
X13831Y6111D02*
X14018Y5925D01*
X14918Y6175D02*
Y6420D01*
X15157Y6247D02*
Y6322D01*
X14290Y5733D02*
X14325Y5697D01*
X14232Y6228D02*
Y6247D01*
Y6258D01*
X14248Y6242D02*
X14250Y6240D01*
X14232Y6258D02*
X14248Y6242D01*
X11620Y6738D02*
X11878Y6995D01*
X13780Y5320D02*
X14001Y5099D01*
X14027Y5210D02*
X14100D01*
X14702Y5912D02*
X14950Y6160D01*
X15115D02*
X15118Y6162D01*
X15107Y6045D02*
Y6160D01*
X15107D02*
X15115D01*
X14950D02*
X15107D01*
X14693Y5950D02*
X14918Y6175D01*
X14680Y5985D02*
X14882Y6188D01*
X12788Y6495D02*
X13193D01*
X13752Y6267D02*
Y6295D01*
Y6475D01*
X14338Y6215D02*
X14373Y6180D01*
X14335Y6215D02*
Y6305D01*
X14435Y6472D02*
X14479Y6516D01*
Y6606D01*
X14423Y6662D02*
X14479Y6606D01*
X14352Y6662D02*
X14423D01*
X14320Y6695D02*
X14352Y6662D01*
X14320Y6695D02*
Y6855D01*
X14355Y6890D01*
X14440D01*
X14550Y7000D01*
X14962D01*
X15227Y7265D01*
X14424Y6399D02*
X14521Y6496D01*
Y6616D01*
X14438Y6700D02*
X14521Y6616D01*
X14390Y6700D02*
X14438D01*
X14355Y6735D02*
X14390Y6700D01*
X14355Y6735D02*
Y6835D01*
X14373Y6853D01*
X14452D01*
X14565Y6965D01*
X14368Y6392D02*
X14374Y6399D01*
X14565Y6965D02*
X14990D01*
X15198Y7172D01*
X14418Y6275D02*
X14555Y6412D01*
Y6633D01*
X14468Y6720D02*
X14555Y6633D01*
X14468Y6720D02*
Y6820D01*
X14575Y6928D01*
X15025D01*
X15120Y6832D01*
X15193D01*
X15215Y6810D01*
Y6722D02*
Y6810D01*
X15270Y6668D02*
X15948D01*
X15215Y6722D02*
X15270Y6668D01*
X14373Y6180D02*
X14416D01*
X14427Y6168D01*
Y6070D02*
Y6168D01*
X14352Y5995D02*
X14427Y6070D01*
X14043Y5995D02*
X14352D01*
X14694Y5872D02*
X14788D01*
X14676Y5855D02*
X14694Y5872D01*
X13990Y5855D02*
X14676D01*
X13970Y5875D02*
X13973Y5872D01*
X13812Y6033D02*
X13970Y5875D01*
X13973Y5872D02*
X13990Y5855D01*
X13970Y5875D02*
X13973Y5872D01*
X14005Y5890D02*
X14662D01*
X14685Y5912D01*
X14702D01*
X13818Y6078D02*
X14005Y5890D01*
X14018Y5925D02*
X14638D01*
X14662Y5950D02*
X14693D01*
X14638Y5925D02*
X14662Y5950D01*
X14030Y5960D02*
X14615D01*
X14640Y5985D01*
X14680D01*
X13845Y6145D02*
X14030Y5960D01*
X12178Y6058D02*
X12210Y6025D01*
X11330Y6058D02*
X12178D01*
X10963Y6424D02*
X11330Y6058D01*
X11335Y6103D02*
X12188D01*
X12205Y6085D01*
X10980Y6458D02*
X11335Y6103D01*
X10992Y6493D02*
X11347Y6138D01*
X11362Y6172D02*
X12218D01*
X10732Y6135D02*
Y6233D01*
X12218Y6172D02*
X12225Y6180D01*
X12226Y6179D01*
X10647Y5183D02*
X10665Y5200D01*
X11007Y6528D02*
X11362Y6172D01*
X10927Y6555D02*
Y6560D01*
X13062Y6138D02*
X13070Y6145D01*
X10893Y6518D02*
Y6555D01*
X11347Y6138D02*
X13062D01*
X11088Y6500D02*
Y6560D01*
Y6562D01*
X11380Y6208D02*
X12062D01*
X12090Y6235D01*
Y6315D01*
X11088Y6500D02*
X11380Y6208D01*
X12090Y6315D02*
X12132Y6358D01*
X11130Y6682D02*
X11172Y6640D01*
Y6462D02*
Y6640D01*
Y6462D02*
X11393Y6242D01*
X12028D01*
X12053Y6267D01*
Y6325D01*
X12120Y6392D01*
X11145Y6718D02*
X11215Y6647D01*
Y6470D02*
Y6647D01*
Y6470D02*
X11407Y6278D01*
X11993D01*
X12018Y6303D01*
Y6338D02*
X12107Y6428D01*
X12532Y6765D02*
X13638D01*
X11158Y6752D02*
X11249Y6660D01*
Y6491D02*
Y6660D01*
Y6491D02*
X11428Y6312D01*
X11962D01*
X11982Y6333D01*
Y6350D01*
X12095Y6462D01*
X12545Y6825D02*
X13575D01*
X11860Y6930D02*
X12100D01*
X12107D01*
X12100D02*
X12107D01*
X11285Y6503D02*
X11440Y6347D01*
X11933D01*
X11965Y6379D01*
Y6380D01*
X12082Y6497D01*
X11285Y6503D02*
Y6672D01*
X11172Y6785D02*
X11285Y6672D01*
X12018Y6303D02*
Y6338D01*
X14795Y8522D02*
X15020D01*
X12190Y6845D02*
Y6980D01*
X12628Y5560D02*
X12804Y5736D01*
X14282Y5412D02*
Y5570D01*
X12272Y6358D02*
X12500Y6585D01*
Y6632D02*
X12550Y6682D01*
X12500Y6585D02*
Y6632D01*
X12132Y6358D02*
X12272D01*
X14602Y7210D02*
X15143Y7750D01*
X12260Y6392D02*
X12465Y6597D01*
Y6645D01*
X12120Y6392D02*
X12260D01*
X12465Y6645D02*
X12545Y6725D01*
X13496Y6671D02*
X13500Y6668D01*
X13480Y6688D02*
X13496Y6671D01*
X12247Y6428D02*
X12430Y6610D01*
Y6662D01*
X12532Y6765D01*
X12107Y6428D02*
X12247D01*
X9855Y6700D02*
X9865D01*
X9893D01*
X12235Y6462D02*
X12395Y6622D01*
Y6672D01*
X12394Y6674D02*
X12545Y6825D01*
X13568Y7100D02*
X13614Y7054D01*
X12095Y6462D02*
X12235D01*
X12222Y6497D02*
X12357Y6632D01*
Y6685D02*
X12538Y6865D01*
X12357Y6632D02*
Y6685D01*
X12082Y6497D02*
X12222D01*
X14080Y6915D02*
X14090Y6905D01*
X2835Y8625D02*
X3073Y8835D01*
X3912D01*
X4435Y8832D02*
X4783Y9180D01*
X4272Y8832D02*
X4435D01*
X4270Y8835D02*
X4272Y8832D01*
X3533Y9420D02*
X3925D01*
X4282Y9423D02*
X4592D01*
X4725Y9290D01*
X2872Y8760D02*
X3533Y9420D01*
X6720Y8203D02*
Y8205D01*
Y8372D01*
X3547Y3755D02*
X3987D01*
X3347Y3955D02*
X3547Y3755D01*
X4337D02*
X5152D01*
X5353Y3555D01*
X3708Y3205D02*
X3985D01*
X4337Y3205D02*
X4738D01*
X4930Y3397D01*
X3300Y3612D02*
X3708Y3205D01*
X8157Y5762D02*
X8163D01*
X8745D01*
X10803Y5083D02*
Y5088D01*
Y5195D01*
X10936Y6319D02*
X10988Y6267D01*
X10900Y6355D02*
X10936Y6319D01*
X15342Y3229D02*
X15345Y3232D01*
X15345Y3233D01*
X11435Y7290D02*
X11460Y7265D01*
X11432Y7293D02*
X11435Y7290D01*
X11855Y3470D02*
Y3567D01*
Y3470D02*
X12338Y2988D01*
X12988D01*
X13060Y3060D01*
Y3070D01*
D29*
X7697Y7933D02*
X7697D01*
X6454Y8053D02*
X7578D01*
X6334Y7933D02*
X6454Y8053D01*
X5880Y7933D02*
X6334D01*
X5702Y7754D02*
X5880Y7933D01*
X5492Y7754D02*
X5702D01*
X5237D02*
X5492D01*
X13485Y8270D02*
Y9160D01*
Y8268D02*
Y8270D01*
X13481Y8261D02*
X13485Y8265D01*
X13460Y8240D02*
X13481Y8261D01*
X12712Y6597D02*
X13038D01*
X12710D02*
X12712D01*
X9840Y5005D02*
X9900Y4945D01*
X9903Y4942D01*
X5360Y3200D02*
X5365D01*
X5160D02*
X5360D01*
X9090Y5383D02*
Y5625D01*
X8910Y5203D02*
X9090Y5383D01*
Y5625D02*
Y5628D01*
X9190Y5700D02*
X9222Y5668D01*
X9190Y5700D02*
Y6088D01*
X9022Y5738D02*
X9172D01*
X9222Y5668D02*
X9363Y5668D01*
X8880Y5595D02*
X9022Y5738D01*
X8818Y5335D02*
X8880Y5397D01*
Y5595D01*
X8365Y5188D02*
X8365D01*
X7843Y5709D02*
X8365Y5188D01*
X7843Y5709D02*
Y6444D01*
X7697Y6590D02*
X7843Y6444D01*
X8238Y6865D02*
X8422Y6680D01*
X8140Y6865D02*
X8238D01*
X8078Y6928D02*
X8140Y6865D01*
X8078Y6928D02*
Y7028D01*
X8118Y7068D01*
X8932D01*
X8988Y7122D01*
Y7215D01*
X8928Y7275D02*
X8988Y7215D01*
X8818Y7275D02*
X8928D01*
X8757Y7215D02*
X8818Y7275D01*
X8510Y7215D02*
X8757D01*
X8230Y4055D02*
Y4475D01*
X8425Y4578D02*
X8503Y4655D01*
X14375Y8553D02*
Y9125D01*
Y8370D02*
Y8553D01*
X13932D02*
X14375D01*
X13648Y8268D02*
X13932Y8553D01*
X8230Y4055D02*
X8303Y3982D01*
X6195Y3897D02*
X8217D01*
X6235Y4995D02*
X6503D01*
X5847Y4607D02*
X6235Y4995D01*
X5847Y3950D02*
Y4607D01*
Y3950D02*
X5901Y3897D01*
X6195D01*
X7697Y6590D02*
Y7933D01*
X7505Y9555D02*
X7897Y9947D01*
X7505Y8125D02*
Y9555D01*
X7697Y7933D02*
X7995D01*
X7897Y9947D02*
X11545D01*
X12872Y9773D02*
X13485Y9160D01*
X11545Y9947D02*
X11720Y9773D01*
X13724Y9455D02*
X14045D01*
X14375Y9125D01*
X16040Y4633D02*
X16162Y4510D01*
X8720Y5335D02*
X8818D01*
X9190Y6088D02*
X9397Y6295D01*
X9363Y5668D02*
X9642Y5668D01*
X9910Y5667D01*
X9912D01*
X10128Y8340D02*
Y8495D01*
X10212Y8580D01*
X11382D01*
X11420Y8543D01*
Y8397D02*
Y8543D01*
X7782Y8747D02*
X8260Y8270D01*
X7782Y8747D02*
Y9525D01*
X7947Y9690D01*
X8217Y3897D02*
X8303Y3982D01*
X8755Y8620D02*
X8872Y8503D01*
X8755Y8620D02*
Y9407D01*
X8472Y9690D02*
X8755Y9407D01*
X7947Y9690D02*
X8472D01*
X7505Y8125D02*
X7697Y7933D01*
X11720Y9773D02*
X12872D01*
X8365Y5188D02*
X8503Y5050D01*
X8332Y4578D02*
X8425D01*
X8230Y4475D02*
X8332Y4578D01*
X8503Y4655D02*
Y5050D01*
X8872Y8503D02*
X10120D01*
X10128Y8495D01*
X8880Y7925D02*
Y8078D01*
X8922Y8120D01*
Y8268D01*
X8260Y8270D02*
X9382D01*
X5365Y3200D02*
X5372Y3208D01*
X8220Y7953D02*
Y7955D01*
Y8090D01*
X9683Y5005D02*
X9840D01*
X13475Y8268D02*
X13485D01*
X13648D01*
X13485Y8265D02*
Y8268D01*
X12203Y8388D02*
Y8688D01*
X12143Y8328D02*
X12203Y8388D01*
X11838Y9440D02*
X11930Y9347D01*
X12312D01*
X10825Y9340D02*
X10925Y9440D01*
X11695D02*
X11838D01*
X10925D02*
X11695D01*
X11310Y9185D02*
Y9188D01*
Y9432D01*
X15340Y4633D02*
X15342D01*
X16040D01*
X15730Y4383D02*
X16162Y4383D01*
X16165D01*
X16162Y4380D02*
Y4383D01*
Y4510D01*
X4867Y8262D02*
X4889D01*
X4845Y6482D02*
X4847D01*
X8070Y8240D02*
X8220Y8090D01*
X8185Y6008D02*
Y6008D01*
Y6480D01*
X8595Y5203D02*
X8597D01*
X8910D01*
X9090Y5383D02*
X9363D01*
X9090D02*
X9363D01*
X9642D01*
X9657D01*
X9598Y5388D02*
X9642D01*
X9910D01*
X9905Y5108D02*
Y5110D01*
Y5385D01*
X4847Y6482D02*
X5238D01*
X5492D01*
X5492D01*
X8198Y7215D02*
X8510D01*
X4889Y8262D02*
X5238D01*
X5492D01*
X5492D01*
X12312Y9347D02*
X12421Y9456D01*
X12422Y9457D01*
D30*
X3435Y4765D02*
X4012Y4188D01*
X5372D01*
X3435Y4765D02*
Y5738D01*
X3188Y5985D02*
X3435Y5738D01*
X1090Y5985D02*
X3188D01*
X788Y5682D02*
X1090Y5985D01*
X14893Y3247D02*
Y3667D01*
X14777Y3235D02*
X15342D01*
X14532Y1430D02*
X14607Y1505D01*
X10682Y2900D02*
X11000Y2583D01*
X6140Y5183D02*
X7397D01*
X6055Y5267D02*
X6140Y5183D01*
X12060Y8057D02*
X12110Y8007D01*
X12060Y8243D02*
X12135Y8318D01*
X12145Y8322D02*
X12565D01*
X12890Y7997D01*
X6935Y5870D02*
Y6092D01*
X6682Y5617D02*
X6935Y5870D01*
X5788Y6097D02*
X5972Y5912D01*
Y5620D02*
Y5912D01*
X4847Y6335D02*
X5085Y6097D01*
X5315Y8688D02*
Y8695D01*
X4847Y8220D02*
X4889Y8262D01*
X5315Y8688D01*
X4847Y6335D02*
Y6482D01*
Y8220D01*
X7705Y8260D02*
X7725Y8240D01*
X8070D01*
X8082D01*
X6190Y2940D02*
Y3292D01*
Y3295D01*
X5685Y5267D02*
X5690D01*
X6055D01*
X5085Y6097D02*
X5401D01*
X5788D01*
X5808Y5617D02*
X5812D01*
X6682D01*
X11000Y2192D02*
Y2195D01*
Y2583D01*
X14607Y1505D02*
X14940D01*
X14943D01*
X15342Y2473D02*
X15343Y2470D01*
X15342Y2727D02*
X15342Y2473D01*
X15342Y2981D02*
X15342Y2727D01*
X15342Y3229D02*
X15342Y2981D01*
X11407Y7295D02*
Y7415D01*
X12060Y8057D02*
Y8065D01*
Y8243D01*
X12110Y7805D02*
Y7807D01*
Y8007D01*
X12890Y7997D02*
X13050D01*
D31*
X14753Y4210D02*
X14983D01*
X14641Y4322D02*
X14753Y4210D01*
X14065D02*
X14200D01*
X14312Y4322D01*
X14983Y4210D02*
X15136Y4056D01*
X13976D02*
Y4121D01*
X14065Y4210D01*
X15136Y4056D02*
X15160Y4032D01*
X14312Y4322D02*
X14641D01*
X13976Y1701D02*
Y4056D01*
X13723Y1448D02*
X13976Y1701D01*
X12932Y1196D02*
X13722Y1986D01*
X12889Y4061D02*
X13132D01*
X12830Y4121D02*
X12889Y4061D01*
X16165Y4383D02*
X16283Y4265D01*
Y1392D02*
Y4265D01*
X16207Y1317D02*
X16283Y1392D01*
X15955Y1317D02*
X16207D01*
X15548Y910D02*
X15955Y1317D01*
X12840Y910D02*
X15548D01*
X12695Y1055D02*
X12840Y910D01*
X12695Y1055D02*
Y1467D01*
X12932Y1704D01*
X13722Y1986D02*
Y4056D01*
X12932Y1704D02*
X13562Y2334D01*
X12830Y3105D02*
X12993Y3267D01*
X13212D01*
Y3540D01*
X13340Y3668D01*
X13557Y3885D01*
Y4160D01*
X13625Y4228D01*
X13810D01*
X13849Y4189D01*
Y4056D02*
Y4189D01*
X15342Y4505D02*
X15608Y4505D01*
X15730Y4383D01*
X13562Y2334D02*
Y3265D01*
Y3267D01*
X15342Y4505D02*
Y4633D01*
Y4759D01*
D32*
X12330Y7805D02*
X12375Y7760D01*
Y7682D02*
Y7760D01*
X12305Y7612D02*
X12375Y7682D01*
X12188Y7612D02*
X12305D01*
X12920Y4638D02*
X13245D01*
X12793Y4510D02*
X12920Y4638D01*
X16020Y4883D02*
X16107D01*
X16173Y4817D01*
Y4647D02*
Y4650D01*
Y4817D01*
X16073Y3617D02*
X16085Y3605D01*
X15720Y3617D02*
X16073D01*
X15345Y3242D02*
X15720Y3617D01*
X14350Y4845D02*
Y5015D01*
X14515Y5620D02*
X14718D01*
X14430Y5705D02*
X14515Y5620D01*
X13888Y6295D02*
X14077Y6105D01*
X14507Y6042D02*
X14760Y6295D01*
Y6535D01*
X14898Y6672D01*
X12593Y6505D02*
X12665Y6432D01*
X12245Y6275D02*
X12475Y6505D01*
X12593D01*
X12388Y6985D02*
X12455Y7053D01*
X12388Y6822D02*
Y6985D01*
X12538Y4510D02*
X12540D01*
X12793D01*
X12153Y6275D02*
X12172D01*
X12245D01*
X14412Y4783D02*
X14415Y4780D01*
X14350Y4845D02*
X14412Y4783D01*
X14077Y6105D02*
X14335D01*
X14338D01*
X14898Y6672D02*
X15132D01*
X15138D01*
X12110Y7805D02*
X12330D01*
D35*
X11230Y7955D02*
G03*
X11230Y7955I-50J0D01*
G01*
X13798Y8053D02*
G03*
X13798Y8053I-50J0D01*
G01*
X13980Y5378D02*
G03*
X13980Y5378I-50J0D01*
G01*
X9075Y6050D02*
Y8050D01*
X11275Y6050D02*
Y8050D01*
X9075Y6050D02*
X11275D01*
X9075Y8050D02*
X11275D01*
X13657Y7153D02*
X14048D01*
X13657Y8143D02*
X14048D01*
Y7153D02*
Y8143D01*
X13657Y7153D02*
Y8143D01*
X14020Y5287D02*
Y6277D01*
X13630Y5287D02*
Y6277D01*
Y5287D02*
X14020D01*
X13630Y6277D02*
X14020D01*
X4443Y4850D02*
X4743D01*
X4443Y5030D02*
X4743D01*
Y4850D02*
Y5030D01*
X4443Y4850D02*
Y5030D01*
X3215Y9588D02*
X3515D01*
X3215Y9768D02*
X3515D01*
Y9588D02*
Y9768D01*
X3215Y9588D02*
Y9768D01*
X11603Y7508D02*
Y7688D01*
X11903Y7508D02*
Y7688D01*
X11603D02*
X11903D01*
X11603Y7508D02*
X11903D01*
X12415Y7863D02*
Y8043D01*
X12715Y7863D02*
Y8043D01*
X12415D02*
X12715D01*
X12415Y7863D02*
X12715D01*
X4438Y5335D02*
X4738D01*
X4438Y5515D02*
X4738D01*
Y5335D02*
Y5515D01*
X4438Y5335D02*
Y5515D01*
X12810Y9125D02*
Y9305D01*
X12510Y9125D02*
Y9305D01*
Y9125D02*
X12810D01*
X12510Y9305D02*
X12810D01*
X11915Y8793D02*
Y8973D01*
X12215Y8793D02*
Y8973D01*
X11915D02*
X12215D01*
X11915Y8793D02*
X12215D01*
X12507Y8805D02*
X12807D01*
X12507Y8625D02*
X12807D01*
X12507D02*
Y8805D01*
X12807Y8625D02*
Y8805D01*
X8095Y8640D02*
Y8820D01*
X8395Y8640D02*
Y8820D01*
X8095D02*
X8395D01*
X8095Y8640D02*
X8395D01*
X12712Y8142D02*
Y8322D01*
X12412Y8142D02*
Y8322D01*
Y8142D02*
X12712D01*
X12412Y8322D02*
X12712D01*
X11183Y9683D02*
Y9863D01*
X11483Y9683D02*
Y9863D01*
X11183D02*
X11483D01*
X11183Y9683D02*
X11483D01*
X8098Y8355D02*
Y8535D01*
X8398Y8355D02*
Y8535D01*
X8098D02*
X8398D01*
X8098Y8355D02*
X8398D01*
X11613Y6848D02*
Y7028D01*
X11913Y6848D02*
Y7028D01*
X11613D02*
X11913D01*
X11613Y6848D02*
X11913D01*
X11613Y6105D02*
Y6285D01*
X11913Y6105D02*
Y6285D01*
X11613D02*
X11913D01*
X11613Y6105D02*
X11913D01*
X14600Y7740D02*
Y7920D01*
X14900Y7740D02*
Y7920D01*
X14600D02*
X14900D01*
X14600Y7740D02*
X14900D01*
X14618Y6933D02*
Y7113D01*
X14918Y6933D02*
Y7113D01*
X14618D02*
X14918D01*
X14618Y6933D02*
X14918D01*
X11952Y4702D02*
Y4882D01*
X11652Y4702D02*
Y4882D01*
Y4702D02*
X11952D01*
X11652Y4882D02*
X11952D01*
Y4965D02*
Y5145D01*
X11652Y4965D02*
Y5145D01*
Y4965D02*
X11952D01*
X11652Y5145D02*
X11952D01*
X11648Y5503D02*
Y5683D01*
X11948Y5503D02*
Y5683D01*
X11648D02*
X11948D01*
X11648Y5503D02*
X11948D01*
X11952Y5232D02*
Y5412D01*
X11652Y5232D02*
Y5412D01*
Y5232D02*
X11952D01*
X11652Y5412D02*
X11952D01*
X14870Y1702D02*
Y1882D01*
X14570Y1702D02*
Y1882D01*
Y1702D02*
X14870D01*
X14570Y1882D02*
X14870D01*
X14568Y2773D02*
Y2953D01*
X14868Y2773D02*
Y2953D01*
X14568D02*
X14868D01*
X14568Y2773D02*
X14868D01*
X14867Y2242D02*
Y2422D01*
X14567Y2242D02*
Y2422D01*
Y2242D02*
X14867D01*
X14567Y2422D02*
X14867D01*
X6020Y6360D02*
X6320D01*
X6020Y6180D02*
X6320D01*
X6020D02*
Y6360D01*
X6320Y6180D02*
Y6360D01*
X6010Y6830D02*
X6310D01*
X6010Y6650D02*
X6310D01*
X6010D02*
Y6830D01*
X6310Y6650D02*
Y6830D01*
X6002Y8375D02*
X6302D01*
X6002Y8195D02*
X6302D01*
X6002D02*
Y8375D01*
X6302Y8195D02*
Y8375D01*
X6015Y7862D02*
X6315D01*
X6015Y7682D02*
X6315D01*
X6015D02*
Y7862D01*
X6315Y7682D02*
Y7862D01*
X14568Y2513D02*
Y2693D01*
X14868Y2513D02*
Y2693D01*
X14568D02*
X14868D01*
X14568Y2513D02*
X14868D01*
X14867Y1977D02*
Y2157D01*
X14567Y1977D02*
Y2157D01*
Y1977D02*
X14867D01*
X14567Y2157D02*
X14867D01*
X6607Y3657D02*
X6907D01*
X6607Y3477D02*
X6907D01*
X6607D02*
Y3657D01*
X6907Y3477D02*
Y3657D01*
X14623Y5345D02*
X14923D01*
X14623Y5525D02*
X14923D01*
Y5345D02*
Y5525D01*
X14623Y5345D02*
Y5525D01*
X14620Y4093D02*
Y4273D01*
X14920Y4093D02*
Y4273D01*
X14620D02*
X14920D01*
X14620Y4093D02*
X14920D01*
X12907Y7275D02*
Y7455D01*
X12607Y7275D02*
Y7455D01*
Y7275D02*
X12907D01*
X12607Y7455D02*
X12907D01*
Y7532D02*
Y7712D01*
X12607Y7532D02*
Y7712D01*
Y7532D02*
X12907D01*
X12607Y7712D02*
X12907D01*
X14600Y7288D02*
Y7468D01*
X14900Y7288D02*
Y7468D01*
X14600D02*
X14900D01*
X14600Y7288D02*
X14900D01*
X10567Y8398D02*
X10747D01*
X10567Y8698D02*
X10747D01*
X10567Y8398D02*
Y8698D01*
X10747Y8398D02*
Y8698D01*
X11185Y9348D02*
Y9528D01*
X11485Y9348D02*
Y9528D01*
X11185D02*
X11485D01*
X11185Y9348D02*
X11485D01*
X14620Y6663D02*
Y6843D01*
X14920Y6663D02*
Y6843D01*
X14620D02*
X14920D01*
X14620Y6663D02*
X14920D01*
X14925Y4980D02*
Y5160D01*
X14625Y4980D02*
Y5160D01*
Y4980D02*
X14925D01*
X14625Y5160D02*
X14925D01*
X14915Y6400D02*
Y6580D01*
X14615Y6400D02*
Y6580D01*
Y6400D02*
X14915D01*
X14615Y6580D02*
X14915D01*
X14930Y6112D02*
Y6292D01*
X14630Y6112D02*
Y6292D01*
Y6112D02*
X14930D01*
X14630Y6292D02*
X14930D01*
X14925Y4530D02*
Y4710D01*
X14625Y4530D02*
Y4710D01*
Y4530D02*
X14925D01*
X14625Y4710D02*
X14925D01*
X14600Y8245D02*
Y8425D01*
X14900Y8245D02*
Y8425D01*
X14600D02*
X14900D01*
X14600Y8245D02*
X14900D01*
X6818Y1507D02*
Y1807D01*
X6998Y1507D02*
Y1807D01*
X6818Y1507D02*
X6998D01*
X6818Y1807D02*
X6998D01*
X11945Y9368D02*
Y9507D01*
X12249Y9368D02*
Y9507D01*
X11945Y9368D02*
X12249D01*
X11945Y9507D02*
X12249D01*
X13830Y8785D02*
Y9156D01*
X13160Y8785D02*
Y9156D01*
X13830D01*
X13160Y8785D02*
X13830D01*
X4242Y8750D02*
Y8930D01*
X3942Y8750D02*
Y8930D01*
X4242D01*
X3942Y8750D02*
X4242D01*
X4257Y9333D02*
Y9513D01*
X3957Y9333D02*
Y9513D01*
X4257D01*
X3957Y9333D02*
X4257D01*
X4312Y3115D02*
Y3295D01*
X4012Y3115D02*
Y3295D01*
X4312D01*
X4012Y3115D02*
X4312D01*
Y3665D02*
Y3845D01*
X4012Y3665D02*
Y3845D01*
X4312D01*
X4012Y3665D02*
X4312D01*
X13535Y3175D02*
Y3355D01*
X13235Y3175D02*
Y3355D01*
X13535D01*
X13235Y3175D02*
X13535D01*
D36*
X15342Y1711D02*
D03*
Y1965D02*
D03*
Y2219D02*
D03*
Y8061D02*
D03*
Y8569D02*
D03*
Y3997D02*
D03*
Y3235D02*
D03*
Y2473D02*
D03*
X15850D02*
D03*
Y3235D02*
D03*
Y3997D02*
D03*
Y6791D02*
D03*
Y7553D02*
D03*
Y8315D02*
D03*
Y9077D02*
D03*
Y6283D02*
D03*
Y6029D02*
D03*
Y5775D02*
D03*
Y5521D02*
D03*
Y5267D02*
D03*
Y5013D02*
D03*
Y4759D02*
D03*
Y4505D02*
D03*
X15342Y6283D02*
D03*
Y6029D02*
D03*
Y5521D02*
D03*
Y5267D02*
D03*
Y5013D02*
D03*
Y4759D02*
D03*
Y4505D02*
D03*
X15850Y4251D02*
D03*
Y3743D02*
D03*
Y3489D02*
D03*
Y2981D02*
D03*
Y2727D02*
D03*
Y2219D02*
D03*
Y1965D02*
D03*
Y1457D02*
D03*
X15342Y4251D02*
D03*
Y3743D02*
D03*
Y3489D02*
D03*
Y2981D02*
D03*
Y2727D02*
D03*
Y1457D02*
D03*
X15850Y6537D02*
D03*
Y7045D02*
D03*
Y7299D02*
D03*
Y7807D02*
D03*
Y8061D02*
D03*
Y8569D02*
D03*
Y8823D02*
D03*
X15342Y6537D02*
D03*
Y7045D02*
D03*
Y7299D02*
D03*
Y7807D02*
D03*
Y8823D02*
D03*
Y9331D02*
D03*
X15850Y1711D02*
D03*
X15342Y6791D02*
D03*
Y7553D02*
D03*
Y8315D02*
D03*
Y9077D02*
D03*
Y5775D02*
D03*
D37*
X15850Y9331D02*
D03*
D38*
X16104Y9839D02*
D03*
Y949D02*
D03*
D39*
X12932Y1704D02*
D03*
X13723Y1448D02*
D03*
D40*
X12932Y1196D02*
D03*
D41*
X13976Y4056D02*
D03*
X13722D02*
D03*
X13386Y4061D02*
D03*
X13132D02*
D03*
D42*
X13849Y4056D02*
D03*
X13259Y4061D02*
D03*
D43*
X943Y5215D02*
D03*
X1058Y4970D02*
D03*
X848D02*
D03*
X1087Y8760D02*
D03*
X907Y8926D02*
D03*
X700Y8625D02*
D03*
X6185Y2686D02*
D03*
Y2432D02*
D03*
X7925Y9054D02*
D03*
Y9307D02*
D03*
X8179Y9054D02*
D03*
Y9307D02*
D03*
X8433Y9054D02*
D03*
X6195Y3643D02*
D03*
Y3897D02*
D03*
Y4151D02*
D03*
X6183Y1584D02*
D03*
X5492Y6485D02*
D03*
Y6739D02*
D03*
Y6993D02*
D03*
Y7246D02*
D03*
Y7500D02*
D03*
Y7754D02*
D03*
Y8008D02*
D03*
Y8262D02*
D03*
X5238Y6485D02*
D03*
Y6739D02*
D03*
Y6993D02*
D03*
Y7246D02*
D03*
Y7500D02*
D03*
Y7754D02*
D03*
Y8008D02*
D03*
Y8262D02*
D03*
D44*
X788Y5682D02*
D03*
Y5433D02*
D03*
X10788Y9545D02*
D03*
X10538D02*
D03*
X12830Y4121D02*
D03*
Y3105D02*
D03*
D45*
X6185Y2940D02*
D03*
X6195Y4405D02*
D03*
X6183Y1838D02*
D03*
D46*
X8433Y9307D02*
D03*
D47*
X5401Y6097D02*
D03*
X5399Y8638D02*
D03*
X1865Y9534D02*
D03*
X2565Y9535D02*
D03*
X3023Y1044D02*
D03*
X2854Y4842D02*
D03*
X1665Y7734D02*
D03*
X2854Y5345D02*
D03*
X3625Y1044D02*
D03*
D48*
X8060Y1838D02*
D03*
D49*
X7425D02*
D03*
X8060Y1377D02*
D03*
X7425D02*
D03*
D50*
X10750Y1445D02*
D03*
D51*
X5375Y4185D02*
D03*
X13060Y3073D02*
D03*
X6188Y3292D02*
D03*
X9090Y5625D02*
D03*
X8597Y5205D02*
D03*
X8163Y5763D02*
D03*
X8186Y6481D02*
D03*
Y6008D02*
D03*
X8422Y6668D02*
D03*
X8510Y7215D02*
D03*
X8198Y7212D02*
D03*
X8720Y4703D02*
D03*
X10403Y4283D02*
D03*
X10400Y4420D02*
D03*
X13255Y5542D02*
D03*
X13362Y5670D02*
D03*
X5353Y3555D02*
D03*
X5700Y3558D02*
D03*
X8355Y4453D02*
D03*
X10397Y4560D02*
D03*
X13235Y5750D02*
D03*
X5353Y3397D02*
D03*
X5695D02*
D03*
X10403Y4703D02*
D03*
X13207Y5908D02*
D03*
X12185Y4638D02*
D03*
X11625Y3570D02*
D03*
X11850D02*
D03*
X12175Y4775D02*
D03*
X12360Y4792D02*
D03*
X13093Y4467D02*
D03*
Y4942D02*
D03*
X13370Y5320D02*
D03*
X13373Y5465D02*
D03*
X15062Y2965D02*
D03*
X14957Y4817D02*
D03*
X13048Y5860D02*
D03*
X13405Y6405D02*
D03*
X13498Y6672D02*
D03*
X13585Y6392D02*
D03*
X13980Y6750D02*
D03*
X13857Y6580D02*
D03*
X14118Y6680D02*
D03*
X14090Y6920D02*
D03*
X13975Y7018D02*
D03*
X13902Y7332D02*
D03*
X12805Y5735D02*
D03*
X14385Y6570D02*
D03*
X14300Y3975D02*
D03*
X13823Y7053D02*
D03*
X13818Y7220D02*
D03*
X13360Y6965D02*
D03*
X15643Y7557D02*
D03*
X15668Y6400D02*
D03*
X12128Y5915D02*
D03*
X12680Y2790D02*
D03*
X11128Y4983D02*
D03*
X10503Y5188D02*
D03*
X10172Y6550D02*
D03*
X10065Y6620D02*
D03*
X10170Y6410D02*
D03*
X9925Y6435D02*
D03*
X9697Y6470D02*
D03*
X9635Y6350D02*
D03*
X9725Y6253D02*
D03*
X14290Y3442D02*
D03*
X11143Y4820D02*
D03*
X8853Y6662D02*
D03*
X9290Y6880D02*
D03*
X9455Y6700D02*
D03*
X11947Y5805D02*
D03*
X14198Y2525D02*
D03*
X10293Y4905D02*
D03*
X14090Y3715D02*
D03*
X14302Y4147D02*
D03*
X15160Y4032D02*
D03*
X9058Y5867D02*
D03*
X4982Y5515D02*
D03*
X8938Y5956D02*
D03*
X5778Y6740D02*
D03*
X14375Y8370D02*
D03*
X11720Y9773D02*
D03*
X8303Y3982D02*
D03*
X7995Y7933D02*
D03*
X6503Y4995D02*
D03*
X10648Y5185D02*
D03*
X7112Y5647D02*
D03*
X7338Y5755D02*
D03*
X7470Y5515D02*
D03*
X7862Y6728D02*
D03*
X8172Y6967D02*
D03*
X8423Y7330D02*
D03*
X9540Y6868D02*
D03*
X10907Y6825D02*
D03*
X10788Y7222D02*
D03*
X10947Y7232D02*
D03*
X10812Y7582D02*
D03*
X10525Y7782D02*
D03*
X10565Y7945D02*
D03*
X12285Y7715D02*
D03*
X11505Y5780D02*
D03*
X11322Y5797D02*
D03*
X11465Y4570D02*
D03*
X7688Y4160D02*
D03*
X7582Y4010D02*
D03*
X13724Y9455D02*
D03*
X13298Y9688D02*
D03*
X13105Y9697D02*
D03*
X15600Y8375D02*
D03*
X16120Y8303D02*
D03*
X15610Y7807D02*
D03*
X15115Y7518D02*
D03*
X15138Y7750D02*
D03*
X15132Y5220D02*
D03*
X14280Y5412D02*
D03*
X14252Y6925D02*
D03*
X13673Y6730D02*
D03*
X13638Y6888D02*
D03*
X13193Y6495D02*
D03*
X13250Y7378D02*
D03*
X13330Y7225D02*
D03*
X12868Y7030D02*
D03*
X10043Y7032D02*
D03*
X10665Y7155D02*
D03*
X13788Y5945D02*
D03*
X15150Y5705D02*
D03*
X15148Y4967D02*
D03*
X10570Y6882D02*
D03*
X9910Y6968D02*
D03*
X12538Y5867D02*
D03*
X9865Y6697D02*
D03*
X9743Y6780D02*
D03*
X9807Y7062D02*
D03*
X12657Y5772D02*
D03*
X12495Y5458D02*
D03*
X12628Y5533D02*
D03*
X11247Y3762D02*
D03*
X11465Y3710D02*
D03*
X15125Y6953D02*
D03*
X15512Y8165D02*
D03*
X11295Y4592D02*
D03*
X9397Y6295D02*
D03*
X8720Y5335D02*
D03*
X9272Y6675D02*
D03*
X9890Y5825D02*
D03*
X10128Y8340D02*
D03*
X11420Y8397D02*
D03*
X10596Y7624D02*
D03*
X9382Y8270D02*
D03*
X8868Y7175D02*
D03*
X7622Y6328D02*
D03*
X7512Y6197D02*
D03*
X10970Y7885D02*
D03*
X8182Y6735D02*
D03*
X7862Y6947D02*
D03*
X7800Y7203D02*
D03*
X10243Y9593D02*
D03*
X10872Y5833D02*
D03*
X11510Y5938D02*
D03*
X8997Y8068D02*
D03*
X13790Y8238D02*
D03*
X9655Y7620D02*
D03*
X9432Y7725D02*
D03*
X9630Y7828D02*
D03*
X10062Y7597D02*
D03*
X9990Y7707D02*
D03*
X11532Y8990D02*
D03*
X11390D02*
D03*
X11795Y9290D02*
D03*
X13420Y7925D02*
D03*
X13400Y8092D02*
D03*
X10072Y7462D02*
D03*
X11278Y8868D02*
D03*
X11757Y9078D02*
D03*
X11655Y9162D02*
D03*
X9930Y7480D02*
D03*
X11428Y8703D02*
D03*
X13795Y7895D02*
D03*
X11765Y8703D02*
D03*
X9407Y7405D02*
D03*
X9270Y7407D02*
D03*
X10120Y7197D02*
D03*
X9510Y7603D02*
D03*
X9575Y7368D02*
D03*
X10200Y7435D02*
D03*
X10288Y7305D02*
D03*
X11038Y7410D02*
D03*
X13405Y7643D02*
D03*
X13288Y7557D02*
D03*
X14102Y8257D02*
D03*
X14095Y8410D02*
D03*
X15055Y8090D02*
D03*
X14795Y8520D02*
D03*
X14988Y8620D02*
D03*
X13365Y7100D02*
D03*
X14225Y6753D02*
D03*
X13612Y7053D02*
D03*
X14280Y7665D02*
D03*
X14275Y7895D02*
D03*
X14525Y8090D02*
D03*
X15168Y8485D02*
D03*
X15445Y9475D02*
D03*
X15668D02*
D03*
X16050Y2805D02*
D03*
X2973Y9445D02*
D03*
X6870Y7918D02*
D03*
Y7630D02*
D03*
X12407Y9618D02*
D03*
X10203Y9847D02*
D03*
X6688Y5847D02*
D03*
X6755Y6092D02*
D03*
X12740Y8428D02*
D03*
X13020Y8712D02*
D03*
X8185Y4705D02*
D03*
X6568Y7903D02*
D03*
Y8210D02*
D03*
X6718Y8205D02*
D03*
X6715Y7903D02*
D03*
X8322Y4720D02*
D03*
X8880Y7925D02*
D03*
X8810Y8145D02*
D03*
X14312Y2830D02*
D03*
X14773Y3233D02*
D03*
X14893Y3667D02*
D03*
X14940Y1500D02*
D03*
X15080Y1498D02*
D03*
X14530Y1290D02*
D03*
Y1430D02*
D03*
X11000Y2195D02*
D03*
X10682Y2900D02*
D03*
X5360Y3203D02*
D03*
X5160Y3200D02*
D03*
X9800Y8350D02*
D03*
X9545Y7928D02*
D03*
X9132Y8120D02*
D03*
X8070Y8240D02*
D03*
X8220Y7955D02*
D03*
X11088Y6560D02*
D03*
X10743Y6578D02*
D03*
X10460Y6597D02*
D03*
X10888Y6555D02*
D03*
X10735Y6135D02*
D03*
X10630Y6217D02*
D03*
X10465Y6245D02*
D03*
X10988Y6142D02*
D03*
X10940Y6322D02*
D03*
X9683Y5005D02*
D03*
X9901Y4945D02*
D03*
X10803Y5088D02*
D03*
X9906Y5110D02*
D03*
X12110Y7807D02*
D03*
X12057Y8065D02*
D03*
X12143Y8322D02*
D03*
X13473Y8270D02*
D03*
X12203Y8688D02*
D03*
X12422Y9455D02*
D03*
X11695Y9440D02*
D03*
X10825Y9340D02*
D03*
X11310Y9188D02*
D03*
X7397Y5183D02*
D03*
X5812Y5620D02*
D03*
X6512Y5388D02*
D03*
X13050Y7995D02*
D03*
X12385Y7570D02*
D03*
X12185Y7618D02*
D03*
X12107Y6947D02*
D03*
X12190Y6845D02*
D03*
X12275Y6947D02*
D03*
X12455Y7053D02*
D03*
X12788Y6493D02*
D03*
X11425Y7465D02*
D03*
X11440Y7295D02*
D03*
X11460Y7057D02*
D03*
X12540Y4512D02*
D03*
X13245Y4638D02*
D03*
X13038Y6597D02*
D03*
X12530Y6422D02*
D03*
X12712Y6595D02*
D03*
X15180Y4220D02*
D03*
X15155Y4395D02*
D03*
X16020Y4883D02*
D03*
X16173Y4650D02*
D03*
X16085Y3605D02*
D03*
X14000Y5097D02*
D03*
X14100Y5205D02*
D03*
X14243Y4645D02*
D03*
X14245Y4775D02*
D03*
X14415Y4785D02*
D03*
X14350Y5015D02*
D03*
X15112Y6488D02*
D03*
X14370Y6390D02*
D03*
X14252Y6247D02*
D03*
X14415Y6265D02*
D03*
X15157Y6325D02*
D03*
X15107Y6160D02*
D03*
X14788Y5872D02*
D03*
X14290Y5733D02*
D03*
X14718Y5620D02*
D03*
X14430Y5705D02*
D03*
X13752Y6295D02*
D03*
X13888D02*
D03*
X14335Y6105D02*
D03*
X15132Y6670D02*
D03*
X14507Y6042D02*
D03*
X12585Y6603D02*
D03*
X12665Y6412D02*
D03*
X12172Y6275D02*
D03*
X12388Y6822D02*
D03*
X6935Y6092D02*
D03*
X5690Y5268D02*
D03*
X7705Y8260D02*
D03*
M02*
